# xmcd
#
# Track frame offsets:
#	150
#	17719
#	35392
#	55716
#	67605
#	88978
#	103663
#	120569
#	138283
#	153359
#
# Disc length: 2379 seconds
#
# Revision: 44
# Processed by: cddbd v1.5.2PL0 Copyright (c) Steve Scherf et al.
# Submitted via: EZCDAudioConverter 7.1.0.1
#
DISCID=7609490a
DTITLE=周杰伦 - 范特西
DYEAR=2001
DGENRE=
TTITLE0=爱在西元前
TTITLE1=爸 我回来了
TTITLE2=简单爱
TTITLE3=忍者
TTITLE4=开不了口
TTITLE5=上海 一九四三
TTITLE6=对不起
TTITLE7=威廉古堡
TTITLE8=双截棍
TTITLE9=安静
EXTD=
EXTT0=
EXTT1=
EXTT2=
EXTT3=
EXTT4=
EXTT5=
EXTT6=
EXTT7=
EXTT8=
EXTT9=
PLAYORDER=
